<svg viewBox="0 0 256 256" xmlns="http://www.w3.org/2000/svg">
  <style>
    @media (prefers-color-scheme: light) {
      rect { fill: #eff1f5; }
      path { fill: #8839ef; }
    }
  </style>
  <rect fill="#1e1e2e" width="256" height="256" rx="57" />
  <path fill="#cba6f7" d="M40.5 53c0-6.9 5.6-12.5 12.5-12.5h150a12.5 12.5 0 1 1 0 25H53c-6.9 0-12.5-5.6-12.5-12.5Zm75 50c0-7 5.6-12.5 12.5-12.5h75a12.5 12.5 0 1 1 0 25h-75c-7 0-12.5-5.6-12.5-12.5Zm87.5 37.5a12.5 12.5 0 1 1 0 25h-75a12.5 12.5 0 1 1 0-25h75ZM40.5 203c0-7 5.6-12.5 12.5-12.5h150a12.5 12.5 0 1 1 0 25H53c-6.9 0-12.5-5.6-12.5-12.5Zm0-70a6.2 6.2 0 0 1 0-10l40-30.9c4-3.2 10-.3 10 5V159c0 5.2-6 8.1-10 4.9l-40-31Z"/>
</svg>
