<svg viewBox="0 0 256 256" xmlns="http://www.w3.org/2000/svg">
  <style>
    @media (prefers-color-scheme: light) {
      rect { fill: #eff1f5; }
      path { fill: #8839ef; }
    }
  </style>
  <rect fill="#1e1e2e" width="256" height="256" />
  <path fill="#cba6f7" d="M68.5 77c0-4.7 3.8-8.5 8.5-8.5h102a8.5 8.5 0 1 1 0 17H77a8.5 8.5 0 0 1-8.5-8.5Zm51 34c0-4.7 3.8-8.5 8.5-8.5h51a8.5 8.5 0 1 1 0 17h-51a8.5 8.5 0 0 1-8.5-8.5Zm59.5 25.5a8.5 8.5 0 1 1 0 17h-51a8.5 8.5 0 1 1 0-17h51ZM68.5 179c0-4.7 3.8-8.5 8.5-8.5h102a8.5 8.5 0 1 1 0 17H77a8.5 8.5 0 0 1-8.5-8.5Zm0-47.7a4.2 4.2 0 0 1 0-6.6l27.1-21.1a4.2 4.2 0 0 1 6.9 3.3v42.2c0 3.5-4 5.5-6.9 3.3l-27-21Z"/>
</svg>
